<svg width="97" height="95" viewBox="0 0 97 95" fill="none" xmlns="http://www.w3.org/2000/svg">
<path d="M48.1416 1.28418C74.0369 1.28418 95 21.9917 95 47.5C95 73.0083 74.0369 93.7158 48.1416 93.7158C22.2464 93.7157 1.28418 73.0082 1.28418 47.5C1.28418 21.9918 22.2464 1.28433 48.1416 1.28418Z" fill="#CDCDCD" stroke="#373737" stroke-width="2.56757"/>
<g clip-path="url(#clip0_179_169)">
<path d="M36.2356 23.1081H39.0575H43.0259H53.17H69.3667V70.6081H39.0575H36.2356H26.917V23.1081H36.2356ZM50.3482 25.93H45.848V37.4109L48.0981 36.0439L50.3483 37.4109V25.93H50.3482ZM66.5448 67.7862V25.93H53.1701V42.4269L48.098 39.3456L43.026 42.4269V25.93H39.0576V67.7862H66.5448ZM29.739 67.7862H36.2356V25.93H34.3982V47.2665H31.5763V25.93H29.7389L29.739 67.7862Z" fill="#373737"/>
<path d="M31.5763 52.1051H34.3982V62.9487H31.5763V52.1051Z" fill="#1E1E1E"/>
</g>
<defs>
<clipPath id="clip0_179_169">
<rect width="47.5" height="47.5" fill="white" transform="matrix(-1 0 0 1 71.8918 23.1081)"/>
</clipPath>
</defs>
</svg>
