<svg width="56" height="57" viewBox="0 0 56 57" fill="none" xmlns="http://www.w3.org/2000/svg">
<path d="M23.6977 45.8657C23.1723 45.9215 22.7017 45.5379 22.6463 45.0089L20.9335 28.6279C20.8783 28.0991 21.2593 27.6251 21.7847 27.5695L22.7359 27.4687C23.2613 27.4131 23.7321 27.7967 23.7873 28.3255L25.5001 44.7065C25.5555 45.2355 25.1745 45.7093 24.6491 45.7649L23.6977 45.8657Z" fill="black"/>
<path d="M32.3066 45.7649C31.7812 45.7093 31.4002 45.2355 31.4554 44.7065L33.1682 28.3255C33.2236 27.7967 33.6942 27.4131 34.2196 27.4687L35.1708 27.5695C35.6962 27.6251 36.0774 28.0991 36.022 28.6279L34.3092 45.0089C34.254 45.5379 33.7832 45.9215 33.2578 45.8657L32.3066 45.7649Z" fill="black"/>
<path fill-rule="evenodd" clip-rule="evenodd" d="M23.8466 2.48145C22.6988 2.48145 21.6612 3.17015 21.209 4.23235L19.0849 9.22219H9.82608C7.713 9.22219 6 10.9467 6 13.074V17.8888C6 19.8519 7.45868 21.472 9.34436 21.7104L15.2587 52.9332C15.4375 53.8334 16.2227 54.4814 17.1346 54.4814H40.7014C41.6484 54.4814 42.4528 53.784 42.5932 52.8412L46.8934 21.6726C48.6626 21.3338 50 19.7686 50 17.8888V13.074C50 10.9467 48.287 9.22219 46.174 9.22219H36.9122L34.788 4.23235C34.3358 3.17015 33.2984 2.48145 32.1504 2.48145H23.8466ZM32.7494 9.22219L32.0166 7.50057C31.7152 6.79243 31.0234 6.33331 30.2582 6.33331H25.7388C24.9736 6.33331 24.282 6.79243 23.9804 7.50057L23.2476 9.22219H32.7494ZM42.9388 22.5846C43.0056 22.103 42.6308 21.6736 42.1446 21.6748L14.2286 21.7384C13.7282 21.7396 13.3517 22.1946 13.4442 22.6864L18.3961 48.9994C18.574 49.9448 19.3997 50.6296 20.3616 50.6296H37.3118C38.3104 50.6296 39.156 49.893 39.293 48.904L42.9388 22.5846ZM44.2608 17.8888C45.3174 17.8888 46.174 17.0266 46.174 15.9629V15C46.174 13.9363 45.3174 13.074 44.2608 13.074H11.7391C10.6826 13.074 9.82608 13.9363 9.82608 15V15.9629C9.82608 17.0266 10.6826 17.8888 11.7391 17.8888H44.2608Z" fill="black"/>
</svg>
