<svg width="184" height="185" viewBox="0 0 184 185" fill="none" xmlns="http://www.w3.org/2000/svg">
<path d="M145.667 100.185C143.633 100.185 141.683 100.993 140.245 102.431C138.808 103.868 138 105.818 138 107.852V110.765L126.653 99.4185C122.647 95.4437 117.232 93.2133 111.588 93.2133C105.945 93.2133 100.53 95.4437 96.5233 99.4185L91.1566 104.785L72.1433 85.7718C68.0809 81.9048 62.687 79.748 57.0783 79.748C51.4696 79.748 46.0757 81.9048 42.0133 85.7718L30.6666 97.1185V54.1852C30.6666 52.1518 31.4744 50.2018 32.9122 48.764C34.3499 47.3262 36.3 46.5185 38.3333 46.5185H92C94.0333 46.5185 95.9833 45.7108 97.4211 44.273C98.8589 42.8352 99.6666 40.8852 99.6666 38.8518C99.6666 36.8185 98.8589 34.8685 97.4211 33.4307C95.9833 31.9929 94.0333 31.1852 92 31.1852H38.3333C32.2333 31.1852 26.3832 33.6084 22.0699 37.9217C17.7565 42.235 15.3333 48.0852 15.3333 54.1852V146.185C15.3333 152.285 17.7565 158.135 22.0699 162.449C26.3832 166.762 32.2333 169.185 38.3333 169.185H130.333C136.433 169.185 142.283 166.762 146.597 162.449C150.91 158.135 153.333 152.285 153.333 146.185V107.852C153.333 105.818 152.526 103.868 151.088 102.431C149.65 100.993 147.7 100.185 145.667 100.185ZM38.3333 153.852C36.3 153.852 34.3499 153.044 32.9122 151.606C31.4744 150.169 30.6666 148.218 30.6666 146.185V118.815L52.9 96.5818C54.0263 95.5085 55.5225 94.9098 57.0783 94.9098C58.6341 94.9098 60.1303 95.5085 61.2566 96.5818L85.56 120.885L118.527 153.852H38.3333ZM138 146.185C137.989 147.653 137.505 149.078 136.62 150.249L102.043 115.518L107.41 110.152C107.96 109.591 108.616 109.145 109.34 108.841C110.064 108.537 110.841 108.38 111.627 108.38C112.412 108.38 113.189 108.537 113.914 108.841C114.638 109.145 115.294 109.591 115.843 110.152L138 132.462V146.185ZM174.11 33.4085L151.11 10.4085C150.381 9.71051 149.521 9.16338 148.58 8.79849C146.713 8.03169 144.62 8.03169 142.753 8.79849C141.812 9.16338 140.952 9.71051 140.223 10.4085L117.223 33.4085C116.508 34.1233 115.941 34.9719 115.555 35.9059C115.168 36.8399 114.969 37.8409 114.969 38.8518C114.969 40.8935 115.78 42.8515 117.223 44.2952C118.667 45.7388 120.625 46.5499 122.667 46.5499C124.708 46.5499 126.666 45.7388 128.11 44.2952L138 34.3285V77.1852C138 79.2185 138.808 81.1685 140.245 82.6063C141.683 84.0441 143.633 84.8518 145.667 84.8518C147.7 84.8518 149.65 84.0441 151.088 82.6063C152.526 81.1685 153.333 79.2185 153.333 77.1852V34.3285L163.223 44.2952C163.936 45.0137 164.784 45.5841 165.718 45.9733C166.652 46.3625 167.655 46.5629 168.667 46.5629C169.679 46.5629 170.681 46.3625 171.615 45.9733C172.549 45.5841 173.397 45.0137 174.11 44.2952C174.829 43.5824 175.399 42.7345 175.788 41.8002C176.177 40.866 176.378 39.8639 176.378 38.8518C176.378 37.8397 176.177 36.8377 175.788 35.9034C175.399 34.9691 174.829 34.1212 174.11 33.4085Z" fill="#424242"/>
</svg>
