<svg width="95" height="95" viewBox="0 0 95 95" fill="none" xmlns="http://www.w3.org/2000/svg">
<circle cx="47.5" cy="47.5" r="46.2162" fill="#CDCDCD" stroke="#373737" stroke-width="2.56757"/>
<g clip-path="url(#clip0_135_90)">
<path d="M35.7525 23.1082H38.5367H42.4522H52.4611H68.4418V70.6082H38.5367H35.7525H26.5581V23.1082H35.7525ZM49.6769 25.93H45.2366V37.4109L47.4568 36.044L49.677 37.4109V25.93H49.6769ZM65.6575 67.7863V25.93H52.4612V42.427L47.4567 39.3457L42.4523 42.427V25.93H38.5368V67.7863H65.6575ZM29.3424 67.7863H35.7525V25.93H33.9395V47.2666H31.1552V25.93H29.3423L29.3424 67.7863Z" fill="#373737"/>
<path d="M31.1553 52.1051H33.9396V62.9487H31.1553V52.1051Z" fill="#1E1E1E"/>
</g>
<defs>
<clipPath id="clip0_135_90">
<rect width="46.8667" height="47.5" fill="white" transform="matrix(-1 0 0 1 70.9333 23.1082)"/>
</clipPath>
</defs>
</svg>
